<svg width="35" height="35" viewBox="0 0 35 35" fill="none" xmlns="http://www.w3.org/2000/svg">
<circle cx="17.5" cy="17.5" r="17.5" fill="#E1306C"/>
<path d="M26.948 13.3054C26.937 12.5484 26.797 11.7974 26.529 11.0894C26.06 9.88045 25.105 8.92445 23.896 8.45645C23.197 8.19345 22.458 8.05245 21.71 8.03645C20.748 7.99345 20.443 7.98145 18.001 7.98145C15.559 7.98145 15.246 7.98145 14.291 8.03645C13.544 8.05245 12.805 8.19345 12.106 8.45645C10.897 8.92445 9.94105 9.88045 9.47305 11.0894C9.21005 11.7884 9.06805 12.5274 9.05405 13.2744C9.01105 14.2374 8.99805 14.5424 8.99805 16.9844C8.99805 19.4264 8.99805 19.7384 9.05405 20.6944C9.06905 21.4424 9.21005 22.1804 9.47305 22.8814C9.94205 24.0894 10.897 25.0454 12.107 25.5134C12.803 25.7854 13.542 25.9394 14.292 25.9634C15.255 26.0064 15.56 26.0194 18.002 26.0194C20.444 26.0194 20.757 26.0194 21.712 25.9634C22.459 25.9484 23.198 25.8074 23.898 25.5444C25.107 25.0754 26.062 24.1194 26.531 22.9114C26.794 22.2114 26.935 21.4734 26.95 20.7244C26.993 19.7624 27.006 19.4574 27.006 17.0144C27.004 14.5724 27.004 14.2624 26.948 13.3054ZM17.995 21.6024C15.441 21.6024 13.372 19.5334 13.372 16.9794C13.372 14.4254 15.441 12.3564 17.995 12.3564C20.547 12.3564 22.618 14.4254 22.618 16.9794C22.618 19.5334 20.547 21.6024 17.995 21.6024ZM22.802 13.2634C22.205 13.2634 21.724 12.7814 21.724 12.1854C21.724 11.5894 22.205 11.1074 22.802 11.1074C23.397 11.1074 23.879 11.5894 23.879 12.1854C23.879 12.7814 23.397 13.2634 22.802 13.2634Z" fill="white"/>
<path d="M17.9952 19.9826C19.6537 19.9826 20.9982 18.6381 20.9982 16.9796C20.9982 15.3211 19.6537 13.9766 17.9952 13.9766C16.3367 13.9766 14.9922 15.3211 14.9922 16.9796C14.9922 18.6381 16.3367 19.9826 17.9952 19.9826Z" fill="white"/>
</svg>
