<svg width="35" height="35" viewBox="0 0 35 35" fill="none" xmlns="http://www.w3.org/2000/svg">
<circle cx="17.5" cy="17.5" r="17.5" fill="#0072B1"/>
<path d="M11.923 11.846C12.985 11.846 13.846 10.985 13.846 9.92299C13.846 8.86095 12.985 8 11.923 8C10.861 8 10 8.86095 10 9.92299C10 10.985 10.861 11.846 11.923 11.846Z" fill="white"/>
<path d="M15.6617 13.3027V23.9714H18.9742V18.6955C18.9742 17.3034 19.2362 15.9552 20.9623 15.9552C22.6647 15.9552 22.6858 17.5468 22.6858 18.7834V23.9723H26V18.1216C26 15.2477 25.3813 13.0391 22.0222 13.0391C20.4095 13.0391 19.3284 13.9241 18.8864 14.7617H18.8415V13.3027H15.6617ZM10.2637 13.3027H13.5814V23.9714H10.2637V13.3027Z" fill="white"/>
</svg>
