<svg width="50" height="24" viewBox="0 0 50 24" fill="none"
	xmlns="http://www.w3.org/2000/svg">
	<g clip-path="url(#clip0)">
		<path d="M16.2148 24L18.4066 22.6442L18.7541 24H16.2148Z" fill="black"/>
		<path d="M12.9756 22.2915L15.8779 20.9565V22.3437L12.9756 22.2915Z" fill="black"/>
		<path d="M19.0335 23.8798L21.6093 21.4607L20.2717 19.1331L18.6416 22.3698L19.0335 23.8798Z" fill="black"/>
		<path d="M23.7256 5.44421L29.6191 12.017L46.7068 11.8916L23.7256 5.44421Z" fill="black"/>
		<path d="M9.11692 11.9491L9.09863 15.1362H12.5L9.11692 11.9491Z" fill="black"/>
		<path d="M11.1052 16.9387L9.125 15.434H11.0529L11.1052 16.9387Z" fill="black"/>
		<path d="M21.7849 21.1707L17.626 13.9292L23.112 16.6121L21.7849 21.1707Z" fill="black"/>
		<path d="M43.5488 10.6977L46.9267 11.646L49.8578 9.91663L43.5488 10.6977Z" fill="black"/>
		<path d="M3.00406 9.53519L6.58564 8.35178L7.08983 5.26917L2.12891 9.15117L3.00406 9.53519Z" fill="black"/>
		<path d="M16.1738 22.3437L19.6614 18.0699L18.1462 15.434H16.1738V22.3437Z" fill="black"/>
		<path d="M17.6885 13.6315L23.3809 16.4136L29.2535 12.051L23.3913 5.51477L19.0913 7.1658L17.6885 13.6315Z" fill="black"/>
		<path d="M0 4.15114L5.81517 5.89099L7.13182 4.8591L7.74312 1.26184H1.47861L0 4.15114Z" fill="black"/>
		<path d="M8.04137 1.26184L6.89453 8.297L9.11245 11.539L13.031 7.73795L11.2807 4.37581L8.04137 1.26184Z" fill="black"/>
		<path d="M12.9313 15.1362H17.9758L17.3122 13.9815L18.7647 7.27551L13.4929 7.69872L9.32617 11.7401L12.9313 15.1362Z" fill="black"/>
		<path d="M4.56089 0.963971H3.1084L3.87122 0L4.56089 0.963971Z" fill="black"/>
	</g>
	<defs>
		<clipPath id="clip0">
			<rect width="49.8574" height="24" fill="white"/>
		</clipPath>
	</defs>
</svg>