<svg width="35" height="35" viewBox="0 0 35 35" fill="none" xmlns="http://www.w3.org/2000/svg">
<circle cx="17.5" cy="17.5" r="17.5" fill="#1DA1F2"/>
<path d="M24.4289 14.4807C24.4402 14.6339 24.4402 14.7861 24.4402 14.9384C24.4402 19.5977 20.8939 24.9668 14.4127 24.9668C12.416 24.9668 10.561 24.3884 9 23.3839C9.2835 23.4163 9.5565 23.4276 9.85137 23.4276C11.499 23.4276 13.0154 22.8711 14.2272 21.9217C12.6776 21.8894 11.3791 20.8744 10.9311 19.4779C11.149 19.5102 11.3677 19.5321 11.597 19.5321C11.9129 19.5321 12.2305 19.4884 12.5254 19.4122C10.9092 19.085 9.69912 17.6666 9.69912 15.9534V15.9096C10.169 16.1712 10.7141 16.3349 11.2916 16.3567C10.3422 15.725 9.72012 14.6444 9.72012 13.422C9.72012 12.7675 9.89425 12.1672 10.1996 11.644C11.9347 13.7816 14.5431 15.179 17.4674 15.3321C17.4131 15.0696 17.3799 14.7975 17.3799 14.5245C17.3799 12.582 18.9514 11 20.9044 11C21.9194 11 22.8355 11.4252 23.4795 12.113C24.2757 11.9599 25.0387 11.665 25.716 11.2616C25.4544 12.0797 24.897 12.7675 24.1664 13.2041C24.876 13.1271 25.5637 12.9311 26.1955 12.6581C25.716 13.3564 25.1166 13.9785 24.4289 14.4807Z" fill="white"/>
</svg>
